<svg height="682pt" viewBox="-21 -21 682 682.66682" width="682pt" xmlns="http://www.w3.org/2000/svg"><path d="m640.03125 506.570312c-.003906-.605468-.066406-1.210937-.179688-1.804687 0-.167969-.136718-.320313-.191406-.492187v-.09375l-.054687-.085938c-7.265625-22.789062-22.050781-42.429688-41.941407-55.710938.074219-1.519531-.179687-3.035156-.746093-4.449218l-73.085938-177.351563c17.316407-.449219 31.128907-14.59375 31.167969-31.914062v-24.660157c0-10.117187-4.78125-19.636718-12.894531-25.675781-8.117188-6.039062-18.609375-7.886719-28.300781-4.980469l-56.820313 17.066407c.375-1.128907.851563-2.207031 1.066406-3.390625 2.117188-9.171875.371094-18.816406-4.824219-26.667969-5.179687-8.1875-13.402343-13.980469-22.859374-16.097656-9.457032-2.121094-19.367188-.390625-27.546876 4.804687l-57.671874 35.8125c-.796876.535156-1.839844.496094-2.59375-.089844l-47.519532-38.839843c-1.898437-1.546875-4.269531-2.398438-6.722656-2.402344l-24.703125-.074219h-7.730469l-30.816406-.136718c-2.851562-.066407-5.605469 1.070312-7.582031 3.125-2.007813 2.011718-3.132813 4.742187-3.117188 7.585937v2.277344l-.117187 11.597656v.269531c-.003906.078125-.003906.160156 0 .242188l-.574219 158.875c.683594 6.980468 4.265625 13.347656 9.875 17.550781.484375.425781 1.007813.804687 1.558594 1.140625h-123.433594c-26.472656.089844-47.910156 21.523438-48 48 .082031 25.726562 20.433594 46.8125 46.144531 47.804688-78.378906 40.386718-98.941406 124.671874-99.210937 125.789062-.730469 3.167969.019531 6.5 2.046875 9.042969 2.027344 2.550781 5.101562 4.027343 8.355468 4.027343h70.480469c12.921875 32.21875 44.136719 53.335938 78.847657 53.335938 34.710937 0 65.933593-21.117188 78.847656-53.335938h59.816406c4.6875 0 8.824219-3.054687 10.203125-7.53125.820313-2.675781 19.792969-66.132812-13.355469-110.933593-5.871094-7.855469-13.003906-14.6875-21.113281-20.199219h8.265625c21.441406.019531 40.253906-14.277344 45.976562-34.933594l1.855469 1.066406c.21875.367188.335938.789063.34375 1.21875l-.546875 92.027344c.046875 5.851563 1.511719 11.597656 4.265625 16.757813.585938 16.632812-.65625 33.277343-3.691406 49.644531-.667969 3.148438.121094 6.4375 2.152344 8.9375 2.035156 2.507812 5.089843 3.953125 8.3125 3.945312h53.332031c3.332031 0 6.472656-1.554687 8.488281-4.207031 2.015625-2.648437 2.679688-6.089843 1.796875-9.296875-7.324218-37.582031-.109375-76.542968 20.1875-109.003906 28.984375-48.292969 88.042969-58.863281 88.632813-58.972656 3.066406-.515625 5.757812-2.347656 7.359375-5.015625 1.605468-2.664063 1.96875-5.898438.992187-8.851563l-41.550781-124.644531h20.757812c-.003906 1.390625.257813 2.765625.78125 4.0625l67.773438 164.582031c-1.777344-.566406-3.476562-1.269531-5.332031-1.738281-39.546875-10.265625-81.480469 2.988281-107.949219 34.109375-26.46875 31.125-32.816406 74.636719-16.335938 112.019531v.0625c.0625.171875.117188.34375.191407.503907.238281.445312.511719.875.808593 1.28125.234376.414062.492188.808593.773438 1.195312.402344.457031.859375.875 1.351562 1.246094.300782.292968.621094.566406.945313.824218.582031.347657 1.191406.640626 1.828125.875.332031.136719.628906.324219.972656.433594.960938.289063 1.957032.4375 2.960938.449219h.128906c1.285156-.003906 2.554688-.238281 3.753906-.695313l7.339844-2.792968 3.796875 4.269531c12.492187 29.984375 40.953125 50.257813 73.375 52.265625h1.375c1.316406.117188 2.648437.222656 4.011719.222656 47.125 0 85.332031-38.207031 85.332031-85.335937-.050781-11.253907-2.277344-22.394531-6.5625-32.804688l10.339844-3.925781c.53125-.269531 1.035156-.585938 1.503906-.953125 1.3125-.53125 2.402344-1.496094 3.09375-2.730469.441406-.511718.824219-1.0625 1.164063-1.648437.257812-.632813.453124-1.285157.585937-1.953125.21875-.640625.375-1.304688.46875-1.972656.023437-.65625-.015625-1.308594-.109375-1.953126zm-120.09375-306.777343c3.230469-.972657 6.726562-.351563 9.433594 1.660156 2.703125 2.011719 4.296875 5.183594 4.296875 8.554687v24.660157c0 5.890625-4.777344 10.664062-10.671875 10.664062h-63.996094c-5.890625 0-10.664062-4.773437-10.664062-10.664062v-5.464844c-.003907-4.707031 3.085937-8.859375 7.59375-10.210937zm-264.027344-28.996094h7.746094l20.863281.0625 44.65625 36.492187c7.851563 6.328126 18.859375 6.960938 27.382813 1.582032l57.703125-35.839844c3.394531-2.179688 7.515625-2.910156 11.445312-2.042969 3.9375.871094 7.359375 3.277344 9.519531 6.679688 2.210938 3.046875 2.988282 6.90625 2.132813 10.570312-.855469 3.964844-3.273437 7.429688-6.699219 9.601563l-78.453125 49.894531c-7.914062 5.027344-18.183593 4.269531-25.265625-1.863281l-40.539062-34.847656c-.265625-.285157-.554688-.546876-.863282-.792969l-48.402343-39.621094zm-95.574218 447.867187c-22.839844.070313-43.953126-12.15625-55.261719-32h110.523437c-11.308594 19.84375-32.417968 32.070313-55.261718 32zm118.285156-137.929687c20.894531 28.203125 15.496094 68.128906 12.019531 84.59375h-265.234375c23.519531-71.761719 91.445312-119.5 166.929688-117.328125 41.164062 0 70.195312 11.015625 86.285156 32.734375zm23.132812-61.863281c-4.941406 5.019531-11.703125 7.832031-18.753906 7.796875h-181.328125c-7.070313 0-13.855469-2.8125-18.855469-7.8125-5.003906-5-7.8125-11.78125-7.8125-18.855469.09375-14.6875 11.980469-26.574219 26.667969-26.667969h159.6875l48.148437 28.289063c-.339843 6.511718-3.105468 12.660156-7.753906 17.234375zm-64.617187-84.527344c-.757813-.664062-1.46875-1.375-2.132813-2.132812l.476563-135.269532 31.875 25.992188-.351563 87.59375c-.019531 6.664062 2.769532 13.03125 7.679688 17.539062.574218.523438 1.203125.984375 1.875 1.375l107.511718 62.027344c.167969.328125.261719.691406.265626 1.0625l-.417969 114.984375c-.015625 5.207031-2.695313 10.039063-7.105469 12.804687-3.023438 1.359376-6.285156 2.121094-9.597656 2.234376-8.378906-.046876-15.164063-6.835938-15.210938-15.21875l.085938-13.289063c0-.136719.074218-.253906.074218-.398437 0-.136719-.074218-.234376-.074218-.359376l.460937-77.992187c.015625-6.757813-2.863281-13.195313-7.90625-17.6875-.511719-.4375-1.0625-.832031-1.644531-1.183594zm117.074219 230.984375c.835937-6.152344 1.609374-14.246094 1.988281-23.21875 3.507812 1.1875 7.191406 1.828125 10.898437 1.886719h.167969c4.71875-.070313 9.394531-.863282 13.867187-2.355469-.222656 7.910156.136719 15.832031 1.070313 23.6875zm105.335937-295.289063 38.984375 116.945313c-37.609375 9.921875-70.175781 33.496094-91.339844 66.132813-.628906 1.070312-1.160156 2.070312-1.746094 3.097656l.222657-63.4375c.074219-6.773438-2.78125-13.246094-7.828125-17.757813-.535156-.460937-1.109375-.871093-1.71875-1.226562l-107.476563-62.007813c-.199219-.351562-.308593-.75-.308593-1.160156l.28125-69.515625 24.359374 20.941406c14.179688 12.277344 34.730469 13.789063 50.558594 3.730469l63.785156-40.53125c-.1875 1.324219-.292968 2.660156-.316406 4v5.417969c0 17.671875 14.324219 32.003906 31.996094 32.003906h.125c-.042969 1.136719.097656 2.273437.421875 3.367187zm-3.925781 245.4375c9.023437-35.054687 39.207031-60.585937 75.277344-63.667968 36.0625-3.082032 70.140624 16.957031 84.984374 49.972656l-53.203124 20.265625-.207032.074219-105.59375 40.136718c-4.832031-15.160156-5.273437-31.382812-1.257812-46.78125zm110.046875 39.1875c.0625 10.8125-8.003907 19.941407-18.742188 21.210938-10.730469 1.269531-20.707031-5.730469-23.15625-16.257812l39.324219-14.9375c1.675781 3.066406 2.554688 6.492187 2.574219 9.984374zm42.664062 0c-.027343 35.332032-28.664062 63.96875-63.996093 64-.765626.039063-1.535157.019532-2.296876-.066406-.46875-.070312-.9375-.117187-1.410156-.136718-24.980468-1.339844-46.855468-17.207032-55.886718-40.535157-.425782-1.019531-1.007813-1.96875-1.71875-2.8125l20.746093-7.886719c4.648438 15.175782 17.359375 26.503907 32.96875 29.378907 15.609375 2.878906 31.523438-3.171875 41.273438-15.691407 9.753906-12.519531 11.734375-29.429687 5.125-43.863281l20.054687-7.609375c3.355469 7.988282 5.101563 16.554688 5.140625 25.222656zm0 0"/><path d="m139.003906 501.332031h74.667969c5.886719 0 10.667969-4.777343 10.667969-10.664062 0-5.894531-4.78125-10.671875-10.667969-10.671875h-74.667969c-5.890625 0-10.664062 4.777344-10.664062 10.671875 0 5.886719 4.773437 10.664062 10.664062 10.664062zm0 0"/><path d="m139.003906 543.996094h74.667969c5.886719 0 10.667969-4.777344 10.667969-10.664063 0-5.894531-4.78125-10.667969-10.667969-10.667969h-74.667969c-5.890625 0-10.664062 4.773438-10.664062 10.667969 0 5.886719 4.773437 10.664063 10.664062 10.664063zm0 0"/><path d="m256.335938 128.003906c25.847656 0 49.160156-15.539062 59.089843-39.402344 9.9375-23.863281 4.542969-51.355468-13.671875-69.695312-24.90625-25.082031-65.433594-25.226562-90.515625-.320312-25.082031 24.910156-25.226562 65.429687-.320312 90.519531 11.9375 12.078125 28.210937 18.878906 45.195312 18.898437zm-42.664063-64.148437c.082031-23.503907 19.160156-42.519531 42.664063-42.519531h.152343c17.246094.082031 32.746094 10.539062 39.28125 26.5 6.539063 15.960937 2.820313 34.285156-9.417969 46.4375-8.074218 7.882812-18.882812 12.324218-30.160156 12.398437-11.320312-.042969-22.15625-4.574219-30.128906-12.601563-7.972656-8.03125-12.429688-18.902343-12.390625-30.214843zm0 0"/></svg>