<svg xmlns="http://www.w3.org/2000/svg"><symbol id="baseline-shopping_cart-24px"><path d="M7 18c-1.1 0-1.99.9-1.99 2S5.9 22 7 22s2-.9 2-2-.9-2-2-2zM1 2v2h2l3.6 7.59-1.35 2.45c-.16.28-.25.61-.25.96 0 1.1.9 2 2 2h12v-2H7.42c-.14 0-.25-.11-.25-.25l.03-.12.9-1.63h7.45c.75 0 1.41-.41 1.75-1.03l3.58-6.49A1.003 1.003 0 0 0 20 4H5.21l-.94-2H1zm16 16c-1.1 0-1.99.9-1.99 2s.89 2 1.99 2 2-.9 2-2-.9-2-2-2z"/><path d="M0 0h24v24H0z" fill="none"/></symbol><symbol id="cart" viewBox="0 0 24 24"><path d="M17 18c-1.11 0-2 .89-2 2a2 2 0 0 0 2 2 2 2 0 0 0 2-2 2 2 0 0 0-2-2M1 2v2h2l3.6 7.59-1.36 2.45c-.15.28-.24.61-.24.96a2 2 0 0 0 2 2h12v-2H7.42a.25.25 0 0 1-.25-.25c0-.05.01-.09.03-.12L8.1 13h7.45c.75 0 1.41-.42 1.75-1.03l3.58-6.47c.07-.16.12-.33.12-.5a1 1 0 0 0-1-1H5.21l-.94-2M7 18c-1.11 0-2 .89-2 2a2 2 0 0 0 2 2 2 2 0 0 0 2-2 2 2 0 0 0-2-2z"/></symbol><symbol id="clock-outline"><path d="M12 20a8 8 0 0 0 8-8 8 8 0 0 0-8-8 8 8 0 0 0-8 8 8 8 0 0 0 8 8m0-18a10 10 0 0 1 10 10 10 10 0 0 1-10 10C6.47 22 2 17.5 2 12A10 10 0 0 1 12 2m.5 5v5.25l4.5 2.67-.75 1.23L11 13V7h1.5z"/></symbol><symbol id="close" viewBox="0 0 24 24"><path d="M19 6.41L17.59 5 12 10.59 6.41 5 5 6.41 10.59 12 5 17.59 6.41 19 12 13.41 17.59 19 19 17.59 13.41 12 19 6.41z"/></symbol><symbol id="magnify" viewBox="0 0 24 24"><path d="M9.5 3A6.5 6.5 0 0 1 16 9.5c0 1.61-.59 3.09-1.56 4.23l.27.27h.79l5 5-1.5 1.5-5-5v-.79l-.27-.27A6.516 6.516 0 0 1 9.5 16 6.5 6.5 0 0 1 3 9.5 6.5 6.5 0 0 1 9.5 3m0 2C7 5 5 7 5 9.5S7 14 9.5 14 14 12 14 9.5 12 5 9.5 5z"/></symbol></svg>