<svg xmlns="http://www.w3.org/2000/svg" viewBox="0 0 512 512"><path fill="#7cc1ee" d="M439.3 281.8a183.3 183.3 0 10-259.6 166.7l4.1 1.9a182.7 182.7 0 00144.4 0l4.1-1.9c63.2-28.9 107-92.7 107-166.7zM256 419.4a137.6 137.6 0 110-275.2 137.6 137.6 0 010 275.2z"/><circle cx="256" cy="281.8" r="137.6" fill="#e6e5ea"/><g fill="#ec7"><path d="M82.4 25a88.5 88.5 0 00-24.5 122.7l5.8 8.7L210.9 58l-5.7-8.6A88.5 88.5 0 0082.4 24.9zM454.1 147.7a88.5 88.5 0 10-147.3-98.3l-5.7 8.7 147.2 98.3 5.8-8.7z"/></g><g fill="#cd5897"><path d="M163.9 441.5l-12.2 32.7a20.6 20.6 0 0037.6 16.7l16-31-21.5-9.5-4.1-1.9-15.8-7zM306.7 460l16 30.9a20.6 20.6 0 0037.6-16.7l-12.2-32.7-15.8 7-4.1 1.9-21.5 9.5z"/></g><g fill="#040507"><path d="M108.4 281.8a147.7 147.7 0 00237.7 116.8 10 10 0 10-12.2-15.8 127.7 127.7 0 01-205.5-101c0-70.3 57.3-127.6 127.6-127.6a127.7 127.7 0 01121.7 166 10 10 0 0019 6.1 147.6 147.6 0 10-288.3-44.5z"/><path d="M377.5 121l65.3 43.7a10 10 0 0013.8-2.8l5.8-8.6a97.9 97.9 0 0014.7-74 98.6 98.6 0 00-178.6-35.5l-5.7 8.7a10 10 0 002.7 13.9l65.3 43.6-3.8 5.7-.6 1a192.2 192.2 0 00-200.8 0 10 10 0 00-.6-1l-3.8-5.7 65.3-43.6a10 10 0 002.7-13.9l-5.7-8.7A97.9 97.9 0 00150.8 2c-25.8-5.1-52.1.1-74 14.7a97.9 97.9 0 00-42 62.7c-5 25.8.2 52.1 14.8 74l5.8 8.6a10 10 0 0013.8 2.8l65.3-43.6 3.9 5.7.8 1a193.1 193.1 0 0012.8 317l-9.7 26a30.7 30.7 0 0055.9 24.7l13.2-25.6a193.2 193.2 0 0089.2 0l13.2 25.6a30.7 30.7 0 0039.6 13.9 30.7 30.7 0 0016.3-38.7l-9.7-26a193.4 193.4 0 0012.8-316.9l.8-1 3.9-5.7zm-62.6-65.7l.3-.3a78.6 78.6 0 01130.6 87.2l-.2.3L380.3 99l-65.4-43.6zM66.4 142.5l-.2-.3a78 78 0 01-11.7-59A78 78 0 01131.4 20a79.4 79.4 0 0165.4 35l.3.3-65.3 43.6-65.4 43.6zm114 343.8a10.6 10.6 0 01-19.3-8.6l8.4-22.7 22 9.8-11 21.5zm164.9 4.8c-5.1 2.3-11.1.1-13.7-4.8l-11.2-21.5 22-9.8 8.5 22.7c2 5.2-.5 11.1-5.6 13.4zm84-209.3c0 95.6-77.7 173.3-173.3 173.3-95.6 0-173.3-77.7-173.3-173.3S160.4 108.4 256 108.4c95.6 0 173.3 77.8 173.3 173.4z"/><path d="M328.6 213.4a10 10 0 00-14.1.1l-61 62-34.5-13.8a10 10 0 10-7.4 18.6l40.7 16.2a10 10 0 0010.8-2.3l65.6-66.6a10 10 0 00-.1-14.2zM266 197.8V182a10 10 0 00-20 0v15.7a10 10 0 0020 0zM256 355.8a10 10 0 00-10 10v15.7a10 10 0 0020 0v-15.7a10 10 0 00-10-10zM340 291.8h15.7a10 10 0 000-20H340a10 10 0 000 20zM156.3 271.8a10 10 0 100 20H172a10 10 0 100-20h-15.7zM379.2 355a10.6 10.6 0 00-2.1-3.3 9.6 9.6 0 00-3.3-2.1l-1.8-.6a9.9 9.9 0 00-10.3 4.2 10.7 10.7 0 00-1.5 3.6 10 10 0 0013.6 11.2 10.1 10.1 0 005.4-5.4 9.4 9.4 0 00.8-3.8 10 10 0 00-.8-3.8z"/></g></svg>