<svg xmlns="http://www.w3.org/2000/svg" viewBox="-46 0 512 512"><path fill="#ffc15a" d="M366.1 252H53.9L10 307.4V502h400V307.4zm0 0"/><path fill="#ffcb7c" d="M330 168H90a36 36 0 00-36 36v48h312v-48a36 36 0 00-36-36zm0 0"/><path fill="#ffddcf" d="M285 64v19.1c0 10.6 4.4 20.6 12.2 27.7a51.2 51.2 0 0116.9 38V168H268v27.7c0 9-7.3 16.3-16.3 16.3H118.3c-9 0-16.3-7.3-16.3-16.3V159c0-15.7 7.1-30.4 19.4-40.2l9.5-7.5c9-7 14.1-17.8 14.1-29.2V64zm0 0"/><path fill="#ff6977" d="M127 10h176v54H127zm0 0"/><path fill="#becfcf" d="M348 418H72a44 44 0 0044 44h188a44 44 0 0044-44zm0 0"/><path fill="#e5ecec" d="M210 302.4c-61.6 0-111.5 49.9-111.5 111.4v4.2h223v-4.2c0-61.5-50-111.4-111.5-111.4zm0 0"/><path d="M410 432a10 10 0 0010-10V307.4a10 10 0 00-2.2-6.2L376 248.4V204a46 46 0 00-46-46h-6v-9.3c0-17.2-7.2-33.8-20-45.4-5.7-5.1-9-12.5-9-20.2V74h8a10 10 0 0010-10V10a10 10 0 00-10-10H127a10 10 0 00-10 10v54a10 10 0 0010 10h8v8.1a27 27 0 01-10.3 21.3l-9.5 7.6A60.9 60.9 0 0092 158h-2a46 46 0 00-46 46v44.4L2.2 301.2a10 10 0 00-2.2 6.2V502a10 10 0 0010 10h400a10 10 0 100-20H20V311l38.7-49h302.6l38.7 49v111a10 10 0 0010 10zM137 20h156v34H137zm-25 139a41 41 0 0115.6-32.3l9.5-7.6a47 47 0 0017.9-37V74h120v9.1c0 13.4 5.7 26.1 15.5 35 8.6 7.9 13.6 19 13.6 30.6v9.3H268a10 10 0 00-10 10v27.7c0 3.5-2.8 6.3-6.3 6.3h-15.4v-24.3a10 10 0 10-20 0V202h-22.7v-24.3a10 10 0 10-20 0V202h-22.8v-24.3a10 10 0 10-20 0V202h-12.5a6.3 6.3 0 01-6.3-6.3zm244 83H64v-38a26 26 0 0126-26h2v17.7c0 2.7.4 5.4 1.2 7.8a10 10 0 005.3 18.5h223a10 10 0 100-20h-44.3c.5-2 .8-4.1.8-6.3V178h52a26 26 0 0126 26zm0 0"/><path d="M210 279.9a10 10 0 00-10 10v2.9A121.7 121.7 0 0088.7 408H72a10 10 0 00-10 10 54 54 0 0054 54h188a54 54 0 0054-54 10 10 0 00-10-10h-16.7c-2.9-61-50.9-110.3-111.3-115.2v-3a10 10 0 00-10-10zM304 452H116a34 34 0 01-32.5-24h253a34 34 0 01-32.5 24zm7.3-44H108.7a101.6 101.6 0 01202.6 0zm0 0M410 452a10 10 0 00-10 10 10 10 0 0010 10 10 10 0 0010-10 10 10 0 00-10-10zm0 0"/></svg>