<svg xmlns="http://www.w3.org/2000/svg" viewBox="0 -63 512 511"><path fill="#ffc15a" d="M391 35.5h-59a15 15 0 00-15 15v18a15 15 0 0015 15h59a15 15 0 0015-15v-18a15 15 0 00-15-15zm0 0"/><path fill="#aac0c1" d="M285 51.5h32v32h-32a16 16 0 110-32zm0 0M480 328.5a48 48 0 11-96 0 48 48 0 0196 0zm0 0"/><path fill="#ffc15a" d="M502.1 296.5H360.4c-7 12.3-20 20-34.3 20h-316v-7.6c0-78.6 63.8-142.4 142.4-142.4h71c11.1 0 20.1 9 20.1 20.2v89.8h53.2a49.6 49.6 0 0049.7-49.6l.1-143.4h35.5l27.7 125h4.4a88 88 0 0188 88zm0 0"/><path fill="#aac0c1" d="M172 328.5a48 48 0 11-96 0 48 48 0 0196 0zm0 0"/><path fill="#ffe6c0" d="M198 316.5a74 74 0 00-119.7-58.3A73.9 73.9 0 0050 316.5zm0 0"/><path fill="#eff3f3" d="M446 79.1h-20a20 20 0 110-40h20zm0 0"/><path fill="#ff6977" d="M94 10.5h64.5c11 0 20 9 20 20v116c0 11-9 20-20 20H30c-11 0-20-9-20-20v-52a84 84 0 0184-84zm0 0"/><path fill="#aac0c1" d="M235 166.5h-36.5a20 20 0 010-40H235a20 20 0 110 40zm0 0"/><path d="M218.5 366.5a10 10 0 00-10 10 10 10 0 0010 10 10 10 0 0010-10 10 10 0 00-10-10zm0 0"/><path d="M417.7 198.6L394.4 93.3a25 25 0 0015.7-8.7c4.6 2.9 10 4.5 15.9 4.5h20a10 10 0 0010-10v-40a10 10 0 00-10-10h-20c-6 0-11.6 1.8-16.3 4.9a25 25 0 00-18.7-8.5h-59a25 25 0 00-23.3 16H285a26 26 0 000 52h51.5v20.2a10 10 0 1020 0V93.5H374L399 207l-47.4 84.7c-5.2 9.2-15 14.9-25.6 14.9H207.4a84.1 84.1 0 00-135.3-56.1c-17.8 14-29 34-31.5 56H20c1.3-71.8 60.2-129.9 132.4-129.9h71c5.5 0 10.1 4.6 10.1 10.2v89.8a10 10 0 0010 10h53.2a59.7 59.7 0 0059.7-59.6v-33.2a10 10 0 00-20 0v33.2a39.7 39.7 0 01-39.7 39.6h-43.2v-79.8a30 30 0 00-3.6-14.2 30 30 0 00-14.9-56h-36.5c-3.5 0-6.9.6-10 1.7V30.5a30 30 0 00-30-30H94A94.1 94.1 0 00.7 82.6v.2C.2 86.6 0 90.5 0 94.5v52a30 30 0 0025.5 29.7l22.2 22.1A152 152 0 000 309v7.6a10 10 0 0010 10h56.2l-.2 2c0 14.5 5.4 27.8 14.2 38H10a10 10 0 000 20h114a58 58 0 0057.8-60H326c15.8 0 30.5-7.6 39.7-20h12.7a58 58 0 009.8 60H258.5a10 10 0 000 20H432a58 58 0 0053.6-80H502a10 10 0 0010-10 98 98 0 00-94.3-98zm-219.2-62.1H235a10 10 0 010 20h-36.5a10 10 0 010-20zM20 94.5v-1.9h109.5a10 10 0 100-20H23.3A74.1 74.1 0 0194 20.5h64.5a10 10 0 0110 10v116a10 10 0 01-10 10H30a10 10 0 01-10-10zm34.1 82h23c-4.9 2.7-9.5 5.8-14 9zm107.9 152a38 38 0 01-37.6 38h-1.6a38 38 0 01-36.8-38c0-.7 0-1.4-.2-2h76.4l-.2 2zm-101.3-22A63.6 63.6 0 0184.4 266h.1a64.1 64.1 0 01102.7 40.4zM426 49h10v20h-10a10 10 0 010-20zM279 67.5a6 6 0 016-6h22v7c0 1.8.2 3.4.5 5H285a6 6 0 01-6-6zm67.5 6H332a5 5 0 01-5-5v-18a5 5 0 015-5h59a5 5 0 015 5v18a5 5 0 01-5 5zm123.5 255a38 38 0 01-37.6 38h-1.6a38 38 0 01-29.8-60h62a38 38 0 017 22zm-92.6-42l38.1-68a78 78 0 0175.9 68zm0 0"/><path d="M346.5 163.7a10 10 0 100-20 10 10 0 100 20zm0 0"/></svg>