<svg height="512pt" viewBox="0 -46 512 512" width="512pt" xmlns="http://www.w3.org/2000/svg"><path d="m467 301.898438v-271.898438h30c8.285156 0 15-6.714844 15-15s-6.714844-15-15-15h-150c-8.285156 0-15 6.714844-15 15s6.714844 15 15 15h90v150.625c-31.457031 2.601562-61.476562 13.367188-87.589844 31.535156-26.664062 18.558594-47.609375 43.597656-61.039062 72.839844h-134.769532c-22.011718-27.414062-55.789062-45-93.601562-45h-15c-8.285156 0-15 6.714844-15 15s6.714844 15 15 15h15c44.488281 0 81.574219 32.464844 88.742188 75h-30.640626c-6.679687-25.847656-30.195312-45-58.101562-45-33.085938 0-60 26.914062-60 60s26.914062 60 60 60c27.90625 0 51.425781-19.152344 58.101562-45h202.457032c20.878906 0 38.894531-14.65625 43.8125-35.636719 8.414062-35.882812 37.253906-62.25 72.628906-68.125v30.660157c-25.851562 6.675781-45 30.195312-45 58.101562 0 33.085938 26.914062 60 60 60 33.082031 0 60-26.914062 60-60 0-27.90625-19.152344-51.425781-45-58.101562zm-407 88.101562c-16.542969 0-30-13.457031-30-30s13.457031-30 30-30 30 13.457031 30 30-13.457031 30-30 30zm316.933594-123.625c-20.859375 16.742188-35.695313 40.230469-41.769532 66.140625-1.75 7.46875-7.621093 12.484375-14.605468 12.484375h-141.492188c-1.3125-10.476562-3.988281-20.535156-7.828125-30h127.050781c6.175782 0 11.714844-3.78125 13.96875-9.527344 20.523438-52.402344 69.511719-89 124.742188-94.675781v30.15625c-21.886719 2.773437-42.792969 11.554687-60.066406 25.421875zm75.066406 123.625c-16.542969 0-30-13.457031-30-30s13.457031-30 30-30 30 13.457031 30 30-13.457031 30-30 30zm0 0"/></svg>