<svg xmlns="http://www.w3.org/2000/svg" width="1182" height="591" fill-rule="evenodd" clip-rule="evenodd" image-rendering="optimizeQuality" shape-rendering="geometricPrecision" text-rendering="geometricPrecision" viewBox="0 0 246.8 123.5"><path fill="#FEFEFE" stroke="#5B5B5B" stroke-linecap="round" stroke-linejoin="round" stroke-miterlimit="22.9" stroke-width=".2" d="M35.5 0l14.8 53.8 75.1 7.3L.1 67.8l.3 7.4 237.7-18-.4-2.4-46.2 2.5L207.2.1z"/><path fill="#E31E24" stroke="#E31E24" stroke-linecap="round" stroke-linejoin="round" stroke-miterlimit="22.9" stroke-width=".2" d="M69.4 123.4h104L187.8 71l58.9 4.8v-3L10.4 50l.3 6.7 113.4 9.3-69 5.2z"/><path fill="#2B2A29" fill-rule="nonzero" stroke="#2B2A29" stroke-linecap="round" stroke-linejoin="round" stroke-miterlimit="22.9" stroke-width=".2" d="M74.1 103.5c.2-.2.3-.5.3-.7l-.2-.4V101v-.8a30.5 30.5 0 0 0 0-1.7l.3-.2V98l-.1-.4-.1-.7.2-.3V96l-.2-.6.6-.8-.6-.5.2-1.5c0-.5-.1-.7-.3-.7l.1-1v-1.1a36.2 36.2 0 0 1 0-4l-.2-.6v-.3l.1-1.1v-.5h-.1v-1.5l.1-.9-.1-1c-.1 0-.2 0-.3-.2l.1-.5.6-1.2.7-1h.2a10.6 10.6 0 0 1 .5 2l.2.3v.7l.2 1c-.4.1-.6.3-.6.5s.2.4.4.6l.3-.4.2 1.6.2.6v.7c0 .2 0 .5.2.7a8.3 8.3 0 0 0 .1 1v.4l.3.8c0 .2 0 .5-.3.7l.2 1 .3-.5h.2v.7l.1.5a13.4 13.4 0 0 1 .6 2.8v.6h-.2v.6l.2-.1.1.1.1.8.2.1.2 1 .5 2.1.1.6.3 1.5v.8l.1.4.2.4.2.1.1 1.2.2.2.4 1.8.4 2 .2.6.2.8h.2l.3-1 .3-1.2v-.5l.2-.6v-.6l.4-1.2.3-.4.1-.4-.1-.8.2-.5v-.6h.3l.1-.4v-.4-.3-.7l.5-2.4.1-1.2.3-.6v-.6l.4-2.2.2-1.3.2-1.3c0-.2.2-.3.4-.3l-.2-1v-.1l.1-.8v-.4l1-3.1v-.9l.3-.8.4-.7.1-.2c0-.2-.3-.3-.8-.5h-.2l-.3-.9.1-.6.2-.2.3-.4.3-.3.5-.5.5-.3v1.4l.1.5V83.6h-.1c-.1 0-.2 0-.2.2s.1.4.3.5l-.1.6v.1h.1v1.4L89 88l-.2 1v1.1h.3l.1.1v5.9l.1.5V97.8h-.3v.8c0 .2.2.4.3.4v.9l.2 1.5v1l.1.2-.1 1v.5l.3.5v2.1l-.3.2v.8s0 .2.2.2l.2.7v.7l.1.4a117.4 117.4 0 0 0 .2 3.4l-.4 1c-.3.5-.7.8-1 .8l-.2.1-.2.1-.1-.1.1-1.4v-.4-.7c0-.2 0-.4.2-.6v-.5a2.2 2.2 0 0 1-.3-1.3l.2-1.5-.2-1.3v-1.6-1.5-.6h.1v-.8l-.2-.3-.2-1v-1.2-.7-.2l.1-.8v-1.1l-.2-.3V92l.6-.6-.7-.4.1-.4c0-.5 0-.8-.3-1 0-.3.1-.4.3-.5l.5-.2-.7-.9v-1l-.2-.5-.2.5-.1.9v.6l-.3.4v.2l-.2 1-.1.8-.1.7-.1.7-.2.6v.6l-.2.3v.8l-.4 2-.2 1.2-.2.4v.6l-.2.2c0 .4 0 .9-.2 1.6l-.2.3v.6c0 .6-.1 1.2-.4 1.6v.5l-.2.8-.2 1-.3 1.3v.7l-.2.6-.2.6v.4c-.2.3-.2.7-.3 1l-.5 3h-.1H81.8l-.2-.2-.4-1.7-.3-1-.2-1v-.7h-.3a118.8 118.8 0 0 1-.6-5c0-.1 0-.3-.2-.5l-.2.2-.3-1-.2-.9v-.3l-.1-.5-.3-1.5-.2-.2-.3-1.6-.4-2h.1v-.7l-.2-.6-.2-1H77l-.4-2.4V90l-.3-.5V89l-.1-.7a3 3 0 0 1-.2-.9l-.1-.7h-.1c-.2-1-.4-1.4-.5-1.4H75l.1 1.1v1.8l.1 1V92l-.1.2v.7l-.1.1v.5c.2 0 .3.2.3.4V98l-.2.5v1.2l-.1.5.2.9v.5l-.1.8v.4a32.3 32.3 0 0 1-.2 4.7c-.2.4-.4.7-.4 1l.2.6.2-.5.1.1v1c0 .3 0 .5-.3.7-.3.1-.4.4-.4.6l.3.4.5.4v1l-.3.3V113.7l-.5.4-.3.4-.6.5-.1-.1v-.2a3 3 0 0 1 .5-1.3c.2-.2.3-.3.3-.5l.2-.6v-.4l-.6-1v-.2l.2-.9V108v-.3-1.6l.2-1.5-.1-1.1zm17.2 11l.1-.3.3-.4.3-1 .2-.3.2-.5v-.3c0-.3 0-.6.3-1l.4-.9.5-2 .2-.1v-.5-.3l.2-.6 1-3.1v-.2l-.2-.1h-.1-.2v-.5-.5l.2-.8.2-.7h.3l.4.4v-.4-.4l.2-.4.2-.7.3-1v-.5l.4-.7.2-1 .5-1.8.7-2.6.2-.5v-.5l.3-.8v-.1-.3l.2-.6.1-.7.2.6V88v-.5l.1-.6.2-.7V86l.1-.5a29 29 0 0 0 .3-1.5h.4v-.3l-.3-.3V83l.2-.5V82.2l.2-.8.2-.8V79.4l.7-1.1.1.3.2-.5v-.4h.2l.2-.5.3-.3c.2 0 .3.5.3 1.4l.2 1.4a15.7 15.7 0 0 1 .4 2.8v.4l-.5.4.2.5.4.3c.1 0 .3.5.4 1.2l.1.9v.5l.1.4.2.5.2.6.1 1v.7c.3.4.4.9.4 1.3v.6l.2.7.4 1.6-.2.3.2.6v.5a9 9 0 0 1 1 3.8l.4 1.8a74 74 0 0 1 .8 3.3l.5 2.7v.6c.4.4.6.8.6 1.2l-.3.6.2.4.1.1.3.8.3 1.4.5 1.7c-.2.2-.2.4-.2.7v.3l-.5.3h-.3l-.6.6-.3-1.7c0-.3 0-.6-.2-1l-.2-1.6v-.3l-.2-.6v-.6-.3-.7l-.2-.5.1-.4.1-.3v-.3l-.4.1a8.2 8.2 0 0 1-.5-2.3l-.1-.7-.2-1.5c-.1-.5-.3-.7-.5-.7s-.3.5-.4 1.5c-.1 0-.2 0-.3-.2-.2-.3-.4-.5-.6-.5l-.3-.3c-.3-.3-.4-.4-.6-.4l-.5.2H101l-.2.1-.5-.3-.3.2-.3-.2-.5.2-.5.2-.2-.7-.6.5-.4.2h-.2-.2a1 1 0 0 0-.5-.2l-.4.2-.4.2-.1.5-.4 1.2-.4 1.5h-.2v1l-.2.6-.5 1.9-.2 1-.1.2-.5.7v.2c0 .2 0 .4.2.6l-.2 1-.3.3-.2.9-.4.3-.2.2-.1-.2h-.2-.1c-.1-.3-.2-.5-.4-.5zm5-13.9l.3-.2.2.2h.3l.1.4.5-.2h.8l.7.3.6.2c0 .4.2.6.4.6l.6-.6.3.1h.5l.2.1h.8l.2.1.6-.2h.4l.8-.2h.7l.1-.1v-.7-.5l-.3-.6-.4-1.4-.1-.7-.2-.7v-.9-.6h-.3l-.2-.5V94l-.2-.7-.3-.8V92l-.3-1.5-.1-.9.2-.2c0-.2-.2-.3-.3-.3-.2-.2-.2-.4-.2-.5l-.2-.7-.1-.8-.1-.5-.2-.7-.3-.9-.1-1.1-.2-.6c0-.4-.2-.7-.3-1l-.3.6a5 5 0 0 0-.1 1.2l-.5 1.4-.5 2.2-.2 1c-.1 0-.2.2-.2.5-.1.5-.3 1-.5 1v.6l-.1.2h-.3v.2l.2.3-.4 1.6c-.3 1.2-.5 2-.8 2.3v.6l-.2.8-.2 1-.2.5-.1.5-.3 1-.1.7zM111.1 115.4v-.2a32.9 32.9 0 0 0 .4-2.3l.2-3-.1-.1v-.1l.7-.9.1-.4c0-.3-.3-.8-.8-1.4l.2-.2v-.7-.5l-.1-1 .1-2.6v-2.7c0-.2 0-.4.2-.6l.1-.7-.3-.3v-1.4-.4-1.4-.1a119.9 119.9 0 0 0 0-2l.2-.4v-.3l-.2-.3v-.8-1.5l.1-.4a2 2 0 0 1-.1-.6v-.4h-.2v-.2l.5-1.7v-1.6l.3-.7-.8-1.7v-1.3c0-.4 0-.5-.2-.5h-.2v-.3-.5l.2-.1h.2a3 3 0 0 1 1-1l.2.4.3.1.2-.3h.5l.4.2.9-.3h.2c.2.2.8.2 1.7.3h.2l.5.1h.1s.2 0 .3-.3l.6.2.5.2h.3l.3.2h.3l.3.1c.2 0 .5.2.8.5l.2.6h-.1v.6l.1.2v-.1-.2l.2-.5.1.2.1.2c.2.2.3.5.3.7v1.5l.1.3-.2.7c0 .4-.2.6-.3.8l-.1.3a153.1 153.1 0 0 0-1.3 2.6l-.3.5-.2-.1-.2.3-.4.6-.2.7-.3.1-.2.3-.2-.2-.1.6c-.3.1-.4.3-.6.5 0 .4-.2.7-.3.8l-.4.3-.1.3-.5.7.2.2.3 1.5.4.8V96.2h.2s.2.1.3.4a10.6 10.6 0 0 1 .4 1.1l-.2.6.1.2.4.1.2.5.2.5.3 1.3c0 .4.4 1 .8 2.2l.3 1 .3 1 .1.7V106.4l.5.7.5.8.7 2v1l.5.6h.2l.2.6.3.4c0 .3.2.4.2.4l.3-.3h.5v.6l-.4.4-.3.4-.3.2-.6.3-.2.3a9 9 0 0 1-.3.3l-.2-.4-.3-.3-.4-1.6v-.8l-.6-.7.1-.8-.4-.7-.5-1.7v-.5a2 2 0 0 1-.4-.7c-.3-.6-.5-1.4-.6-2.2 0-.3-.2-.6-.4-.8a6 6 0 0 1-.6-1.6.7.7 0 0 1-.2-.4 10 10 0 0 0-.4-.8v-.8l-.4-.6h-.2l-.3-1-.6-1.9-.6-1.4-.7-1.1-1.2 1-.3-.1a10 10 0 0 1-.1 1v2a9.2 9.2 0 0 1 0 1v4.7a32 32 0 0 1 0 1.4v.6l-.3.2.1 1h.2v3a1 1 0 0 0-.2.7c0 .3.1.5.3.5v1.5c0 .2 0 .5-.2.8 0 .2 0 .3-.2.5l-.3.3v.4h-.4c-.2.5-.4.8-.7.8 0 0-.2 0-.3-.2zm1.6-27.6l.1-.2.3.4v5.2l-.2.1v.4h.3l.2-.2.3-.2.2.1h.2V93c.2 0 .4-.1.7-.4h.3l.5-.8.5-.7L118 89l.7-.8.4-.9.4-.6.3-.7.3-.2.2-.8.3-.5V84v-.3-.4-.2l.2-.2v-.1l-.3-.3-.2-.6v-.2-.1-.3-.3l-.3-.2v.3c-.2 0-.3-.1-.3-.2l-.5-.3a.7.7 0 0 1-.3-.3h-.2l-.5-.3h-.7c-.1 0-.2 0-.3-.3l-.6.2a2 2 0 0 1-.3.1s-.2 0-.4-.3l-.4-.1c-.1 0-.4.2-.7.6l-.4.2-.3-1-.4.2c-.3 0-.4.1-.5.2l-.2.5v1.5l-.1.9-.1-.1v.8l.3.7v1.8l-.1.7-.2.4c0 .3 0 .6-.2.8zm13.2-10.1l1-1.4.6-1H127.8c.1 0 .2 0 .2.2l.1.4v1.7a27 27 0 0 0 0 2.4l-.3.8h-.3v1.1l.1.3.2-.2.1.4V89.3l-.3.5v.3c0 .2 0 .4.2.7l.1.9v3.9l.1.2v.5l.6-.5.6-1h.1l.3-.7 1.3-3.1.2-.7 1-2.6a18.4 18.4 0 0 0 .8-2l-.2-.4.7-2.3h.2c0-.3 0-.6.2-1l.2-.7.1-.5.3-1c.2-.3.3-.8.4-1.3l.3-1 .4-.3.2-.3.3-.5c.2 0 .2-.1.3-.3l.4-.3v.2l-.1.8-.2.8-.3.6a40.5 40.5 0 0 0-.8 2.2h-.5v.8l.1.1-.1.9-.3.6v.5l-.3.4-.3.5-.1.8s0 .2-.2.3v.5l-.3.6c-.3.7-.7 1.6-1 2.7l-.5 1.2-.6 1.5v.6l-.3.4-.3 1-.3.5-.1.5h-.3l-.1.4-.1.4v.1l.9 2.3c.2.5.2 1 .2 1.3v.3h.3l.4.6.3.9.2.1.3 1v.5c0 .2.2.4.4.6l.2.4h.2l.2.5h.2l.8 1.5 1.2 1.8.3.4v.3l.1.4.3.2v.3l.2.2c.2 0 .3.2.5.3a34.7 34.7 0 0 1 1.5 1.9v.6c.2 0 .4.2.5.4l.2-.4a2 2 0 0 0 1.2.6l.7-.2v.1l.1.2c0 .6-.2 1-.8 1.3l-.2.4c-.2 0-.3.1-.3.2l-.3.3h-.2l-.3-.1-.2-.2h-.3l-.4-.6-.5-.6-.4-.4s-.2-.1-.3-.4l-.4-.4-.3-.3-.2-.5-.1-.2-.4-.6v-.5-.2c-.1-.2-.2-.3-.4-.3l-.3.2c-.2 0-.3-.1-.4-.5v-.7l-.2-.4h-.1-.2a96 96 0 0 0-1.4-2.1l-.5-1-.2-.4a24.6 24.6 0 0 0-1.1-1.6v-.8l-.3-.4h-.2l-.4-.7-.3-1-.3-.4-.1-.7h-.3l-.5-1c0-.1-.1-.2-.3-.2l-.2.2V98.8h.2v4.3l-.2.3v.6s.2 0 .2.2a28.2 28.2 0 0 0-.2 3.3l-.2-.3-.1.2c0 .5.1.8.4.8v1.9l-.3.3.1.5.2-.3.1 1v.4l.1.5v.2c-.2.2-.3.4-.3.7-.2 0-.4.1-.5.4v.2a2 2 0 0 0-.5.5l-.4.5h-.2v-.8-.3l1-1.3-1-1 .2-.2.2-.6v-.8l.7-.9-.7-.8v-3.1-.7-.3-1.2l.1-3 .5-1.2-.5-.9v-.1h.1v.1h.1v-.2l.2-.6h-.3v-4.6a7 7 0 0 1 .1-1.6l-.3-.3.1-1V88.2a34.7 34.7 0 0 0-.2-2l.1-.6.1-.4v-.5c0-.1 0-.2.2-.3v-.8l-.3.3v-1.3a88.9 88.9 0 0 0-.2-4.4c-.3 0-.5-.2-.5-.5v-.1zM142.4 79.3l.2-.8h.1l.3-.6.3-.5h.6l1 .1h.4l.4.5H146l.5-.3s.3 0 .6.3l.3.2.4.2.2-.1s.1-.1.2 0h1.9v.2h.6l.1-.3c.4 0 .8 0 1.2-.2h.4l.4.1 1.3-.5.5-.2h.8c0 .3 0 .5-.2.8v.2l-.5.5-.3.5-.3.3h-.5l-.3-.3H152.6l-.6-.1h-.9l-.5.3-.7-.1h-.3l-.2-.1-.6.1h-.5l-.2.1h-1.3l-.3-.1-.7-.1h-.2-.4l-.3-.1-.2.3.2 1.2v.8l-.3.5h-.1V82.6l.1.3.2.4v2l.8.2.6.3h.4l.4.1.7.1H148.7a3 3 0 0 1 .5 0 5.5 5.5 0 0 0 .7 0 7 7 0 0 0 1.8-.3h.2l.3.1v-.3l.4-.1.4 1c0-.4.2-.6.2-.7 0 0 0-.2.2-.3l.3-.4h.3l-.1.8-.3.4v.6l-.3.6a1 1 0 0 1-.3.1s-.2 0-.2-.3l-.4-.8-.4 1-.3-.2-.5.2-.5-.1-.6.1-.3-.2H149.2l-.7.2-.6-.2h-.9l-.2-.1H146.2l-.3.1h-.3l-.6.1.1 1.2v4h-.2l-.1.6v.4l.1-.1.2.5v.6l-.1.6.1 1.2v1l-.2.2v.5c0 .2.1.5.3.7v6.5l-.3.5v.8h.1l.2-.1.2.2-.1 1v2l.1 1.7c0 .5-.2 1-.5 1.6v.8l.2.2.2.3.4-.7h.4l.7-.3.3.1h.5l.4.4.4-.4.3.7.3-.6c0-.2.1-.3.2-.3l1 .2H151.2l.3-.1h.1l.6.1.4-.1h2l.1-.1.3.1h.2l.2.8h.2v-.6l.1-.2.3 1 .6-.9.2-.2.2.3.3-.1c.1 0 .2 0 .3-.2v-.3l.3-.2h.3l1-.5.3-.3.1.5v.5l-.2.7-.2.3v.4c-.2.5-.5.7-1 .7h-.3l-.5-.9-.6 1.1-.4-.1h-.5l-.3-.2h-.4l-.5-.1h-.1l-.2-.1c-.1.2-.3.3-.4.3l-.6-.3a2.9 2.9 0 0 0-1 0l-.4.1s-.3 0-.8-.3h-.2-.1l-.2.4a1 1 0 0 0-.2-.1H149l-.5.1-.2-.1v-.3l-.4.1v.6h-.2-.1c-.1-.2-.3-.2-.4-.2h-.3l-.3-.7-.1-.2-.7.8c0 .2-.2.2-.3.2l-.4-.2h-.1l-.6.2h-.5l-.7.3h-.3v-.4-.6h.1s.2 0 .2-.2l.4-1.4v-1.1-.1l.1-.4v-.5-.1a72.4 72.4 0 0 0 .1-4.2c0-.2 0-.3.2-.4v-.3l.1-.7-.1.5-.2-.6v-1.3l.2-.6.1-1.1.4-.5-.6-.6.3-.3v-.2l-.2-.2-.2-.6v-2.8l.7-1.1-.8-2.1.6-.5-.6-.5.2-.3v-1l-.1-.4-.1-.2v-.8-1-.2-.5-.2h-.2v-.7c0-.2 0-.4.2-.6-.2-.3-.2-.6-.2-.8v-2.5l-.1-1.6v-1.1l-.2-.2v-1l-.3.1v-.1h-.2l-.3-.1zm17.6-1a7 7 0 0 0 1-1.2l.6-.2c.2 0 .5.2.8.6l.3.1.8.2 1.1.2.4.1h.2l.8-.1h.4l1.3.2.3-.3h.2l.2.1.6.2.3.3.6-.5s.3 0 .7.3l.3-.1H173l.4.4.2-.6h.4l.6-.2.2 1 .2-.6h.3l.5-.6.2.1.2 1 .5-1.2h.2l.2-.2c.1 0 .2 0 .2.3l-.2.4v.3a1 1 0 0 0-.2.3l-.3.6-.2.4-.4.2h-.2l-.4-.2h-.2l-.2.1-.4-.1a1 1 0 0 0-.5-.1 12 12 0 0 0-1 .2l-1-.1h-.3l-.6-.7-.3.8-.2-.2h-1-.6-.2l-.3.1v.2s0 .3-.3.7l-.2 1-.3.7a2 2 0 0 0-.1.5c0 .4.2.7.5 1l.3.4-.1.4v.6h-.2v.6l.2.3v3.8l.1 1a28.5 28.5 0 0 0 0 1.6v.5l-.2.1-.2.3v.2l.2.3v.7l.3.2c-.5.7-.8 1.3-.8 1.9 0 .5.2 1 .8 1.4l-.2.5V100.2l.2.1V104.2a7 7 0 0 0 0 1.3l-.1.1c-.2 0-.3.2-.3.5v.4l.3-.1v.5l.1.4V114.1l-.4.2-.2.3-.2.3h-.2l-.7.9a2 2 0 0 1-.2-.7l.1-.7v-1.1l.1-1v-.7-.9l.4-.7c-.2-.3-.2-.5-.2-.7v-1.9-1.2l.2-.4v-.3-.6l-.2-.3V101v-.6a10.9 10.9 0 0 0 0-1.7v-.9-.4l.1-.8V96l.3-.3v-.3l-.3.1v-.6-.7-.5l-.2-.2v-4.3c0-.3.2-.5.4-.7.2-.3.4-.4.4-.6l-.4-.5-.4-.6.3-.4-.1-.8v-.1-.5c-.2-.4-.3-1-.3-1.5l.2-.6-.2-.7V82c0-.4.3-.8.8-1.3l.1-.2-.8-.5-.1-.2v-.3c-.2-.2-.5-.3-.9-.3h-.5-1.2l-.2.1c0-.2-.2-.2-.2-.2h-.3l-.5-.4-.1.1-.2.2-.3.3-.4-.2-.5.2h-.8l-.5-.2h-.6V79v-.4l.2-.5z"/><path fill="#2B2A29" fill-rule="nonzero" d="M95.8 31.2c0 .4-.1.7-.3.8l-.8-.4-1 1.1-1-.2c-.4.5-.8.7-1.3.7-.4 0-.7.2-.8.4a2 2 0 0 0-1.1-.4c-.4 0-.6.2-.7.6 0 .3.2.5.4.7l-.2.8.2 2.8.6 1.5.1 1.5 1.1 2.6-.1 1.1.7 1.2 1.1 3.1c.6 1.2 1 2 1 2.4l1 .8.3 1.3.4.4-.7.8-.8-1h-.5l-.6-.9h-.5l-.4-1.4-.5-.4c-.4-1.2-.8-2.2-1.3-3v-.7l-.5-.7v-1.3l-.8-1.3-1-4-.4-.7-.1-2c0-.3-.2-.9-.7-1.9v-1.7h-.5l-.7.7-1-.3-.7.7-.2-.4-.6.6-.1-.6s-.3 0-.5.2-.5.3-.8.3l-.6-.1H80l-.8 1-1-.4-1.2.2v.3l-.4-.3-.6.5-.4-.5h-.8l-.8.5-.7-1.1-.3.4-.7-.4c-.6.4-1.4 1.7-2.3 4.1l-.8.3-2.1 5-.5.4-1.4 3H65l-1.2 3-1.3 1.4-1-.4.2-.8v-1l.4-.8-.2-.6.9-.1.6-.6c.5-.4.9-1 1-2 .7-.3 1-1 1.2-1.9.8-.7 1.3-2 1.6-3.6l.7-.4 1.6-4v-1.2c-.3-.3-.4-.7-.6-1.2l1-1.4v-.6l1.1.2.7-.6.1.3.7-1.4c-.2 0-.2-.2-.2-.4l.7-1 .2.5c0-.6.2-1.4.5-2.3l-.2-.2h.6l.2-1c.4-.2.6-.4.6-1V24a5.3 5.3 0 0 0 1.2-3v-.2l.7-.2v-1l.4-.3.5-1.7.4.4-.3-.8c.5-.1.8-.6.8-1.6l.4.3v-1.6h.3v-1.1l.6-.8c.3-.4.5-1 .5-1.8l.6-.9-.3-1.2c.4-1 .8-1.5 1.2-1.5h.1l.3-.8.4.9.4.5.8.7.1 2c.3.3.5.9.7 1.6l.4.3v1.7l.5 2.4.6 1.9.4 2.6.1 1.7.7 1.5-.1.7.5 1v1.2l.1 1c0 .3 0 .6-.2 1 .5 1.8 1 2.8 1.7 2.8l1-.3h1.1l.9.2c.4 0 .7-.2 1-.5l.4-.4 1 .7 1-.1zm-9.4-2c-.2-1-.5-1.5-.8-1.8l.3-1.1-.7-.6-.2-3-.6-1.6v-1.3l-.4-1.1v-.4h-.2v-1.8l-.3-.8-.4-1-.4-.5-.9-.8-.6.4-.3 1-1.2 2.8-.3.9c0 .2-.4 1-1.1 2L78 22l-1 .8c-.3 2-.8 3.3-1.5 3.6l-.5 2.4-1 .6v.9l-.1 1 1.2.8h.6l1 .4h1.1l.2-.1.4.1.6.2.6-.2 2-.3 1.5-.3 2 .3c.7 0 1.1-.3 1.1-.8 0-.4-.1-.8-.4-1.4l.5-.7zM127.4 34.5l.4 1 1.7 2.2c.5.6.7 1.9.7 3.7v1.2c0 .4-.1 1-.5 2-.4.9-1 1.5-1.5 2-.1.3-.3.4-.6.4h-.2c-.4.8-1 1.1-1.7 1.1-.2.5-.5.9-.9 1.2l-1-.1-.9 1.2-.4-.4-.6.4c-.8 0-1.1.1-1.2.3l-1.5-.3c-.7.5-1.2.7-1.5.7l-1.4-.1-.9.7-.5-.2-.3-.2c-.2 0-.3.1-.4.4h-1.6l-.5-.5-.3.5-2.4-.2-1.1-.3-.8.4c-.4 0-.8-.3-1.4-1l-.8.5-.3-.4h-.5c-.7 0-1.2-.2-1.8-.5l-1-.5-.3.1-1.8-2-1-.4a9.2 9.2 0 0 1-1.2-3.7l.3-2.3h.4c.3 0 .5-.3.6-.9l.8-.2-.4-.2.5-.1c.3-.5.5-.8.7-.8.3 0 .5.5.5 1.5-.4.1-.8.5-1.2 1 0 .3 0 .5-.3.8l-.6.6.1.4V45a7 7 0 0 1 1.5 2.1l.7.2 1 .8.8-.2v-.4l1.3.1-.3.3 1 .3.2.5h2.3v.2c.2-.3.4-.4.7-.4l.4.2 1.1.2.1.5h1.4l.5.4-.2-.3 1.1-.5c.2 0 .4.1.5.4.3-.3.7-.5 1-.5l1.2.3c.3-.2.5-.4.8-.4l.7.4 1.8-.8.3-.8 1.6.3 1.2-.4-.2-.1 1.7-.3.2-.2h.4l1.2-.8.3.1v-.3h.8v-.2c0-.5.3-.8.8-.8h.4l.2-.3-.2-.3.6-.7c.4 0 .5-.2.5-.6.5-1 .7-1.7.7-2 0-1.3-1.3-2.8-3.8-4.5l-2.2-1.5c-.6 0-1.4-.3-2.4-1-.5-.5-1-.9-1.7-.9l-1 .2-.2-.6-.7.4-.6-1-.7.3-1.4-1.1h-1l-.5-.7h-.8l-.4-.9v.5h-.6l-.7-1.4c-1.6 0-2.6-.5-3-1.4l-.6.3-.3-1.3-.8-1.4-1-3.2.2-2.5.8-1.7c.3-.2.5-.7.6-1.4l1.2-.9c0 .2.2.3.3.3l.5-1.1.2.5v-.5l1.9-1-.5-.2h.4c.6 0 1-.2 1-.8.9 0 1.7-.2 2.6-.6l-.2-.3.4-.2c.3 0 .4 0 .5.2l-.1-.3.4.1c.3 0 .5-.2.6-.7H116.2v.3l.7-.4h.3l3-.5.1.5V10l.7-.7c.1.6.5.8 1 .8h.2c.8 0 1.3.2 1.6.4l-.4.1c.7 0 1.6.3 2.8 1 1.1.5 1.7 1.6 1.7 3 0 1-.4 1.6-1.2 1.8l-.2-.7-1.7-1h-.7l-.5-1-1 .2-.4-.5-.4.8-.7-.8-1.5.3-1.7-.8-.5.5c-1 0-1.6.2-1.8.4h-.4c-.2 0-.5.2-.7.6l-1.1.1-3.1 2-.8-.4-1.1 1.4h-.7l-.5 1.2L106 20l-.2.4.3 2.2.5.4.2.8.8.4.5.6 1.4 1 .1.4h1.2l1.4 1.6.6-.3c.4.2.8.5 1.2 1 .4.4.7.6.9.6l.5-.3v.5l1.7.2.5.6v-.3h.3l.8.8c.9 0 1.5.2 1.8.5h.8c.4 0 .7.2 1 .6.4.5.6.8.8.8l.6-.3.3.3h.7l1.4 1.6 1.3.3zM141.5 10.5l-.2.1-.3 1.2.3.3-.1 1.7-.1.8.1 1v1l-.2.5.2.4-.4 1.5.2 1.4-.8 2.5.2.2-.1 1v1.4l-.5.4.6 2h-.4l.2.7-.4 1 .5 1.4-.1.6h-.3c-.1 0-.2.2-.2.5 0 .6.2 1.1.7 1.5-.4.3-.6 1-.6 2.3v.9l.2 1.2-.3 1v3l-.1 2.1.5.4-.3 1.2-.1.8c0 .4.2 1 .5 1.6l-.3.2.6 1-.2.7.7.4c-.1.7-.3 1.4-.6 1.9-.3-.2-.4-.5-.4-1l-.7-1.5-.4-.1.2-1.4-.8-1.4.3-.8-.4-1.2.1-1.7-.2-.8-.2-.6.4-1-.2-1 .2-.8-.6-.8.5-1.2v-5.4l.3-4.2-.2-4.1.2-1.1-.2-.4.2-1v-1.4l.1-.5-.3-.2.2-1.9c-.3 0-.5-.2-.6-.6h.6l.1-1.3-.3-.1.2-1c.3-.3.5-.7.5-1.1 0-.4-.1-.8-.4-1.2l.4-.2v-.7h.4l.3-1.1.5-.3c.7 0 1.2.5 1.3 1.3zM179.4 31.2c0 .4-.1.7-.3.8l-.8-.4-1 1.1-1-.2c-.4.5-.8.7-1.4.7-.3 0-.6.2-.7.4a2 2 0 0 0-1.1-.4c-.4 0-.6.2-.7.6 0 .3.2.5.4.7l-.2.8.2 2.8.6 1.5.1 1.5 1.1 2.6-.1 1.1.7 1.2 1.1 3.1c.6 1.2 1 2 1 2.4l1 .8.3 1.3.4.4-.7.8-.8-1h-.5l-.6-.9h-.5l-.5-1.4-.4-.4c-.4-1.2-.9-2.2-1.3-3v-.7l-.5-.7v-1.3l-.8-1.3-1-4-.4-.7-.1-2c0-.3-.3-.9-.7-1.9v-1.7h-.5l-.7.7-1-.3-.7.7-.2-.4-.6.6-.1-.6c-.1 0-.3 0-.5.2-.3.2-.5.3-.8.3l-.7-.1h-.8l-.8 1-1-.4-1.2.2v.3l-.4-.3-.6.5-.4-.5h-.8l-.9.5-.6-1.1-.3.4-.7-.4c-.6.4-1.4 1.7-2.3 4.1l-.8.3-2.1 5-.5.4-1.4 3h-.2l-1.2 3-1.3 1.4-1-.4.2-.8v-1l.4-.8-.2-.6.9-.1.6-.6c.5-.4.9-1 1-2 .7-.3 1-1 1.2-1.9.8-.7 1.3-2 1.6-3.6l.6-.4 1.7-4v-1.2a3 3 0 0 1-.6-1.2l1-1.4v-.6l1.1.2.7-.6.1.3.7-1.4c-.2 0-.2-.2-.2-.4l.7-1 .2.5c0-.6.2-1.4.5-2.3l-.2-.2h.6l.2-1c.4-.2.6-.4.6-1V24a5.4 5.4 0 0 0 1.2-3v-.2l.6-.2.2-1 .3-.3.5-1.7.4.4-.3-.8c.5-.1.8-.6.8-1.6l.4.3v-1.6h.3v-1.1l.6-.8c.3-.4.5-1 .5-1.8l.6-.9-.3-1.2c.4-1 .8-1.5 1.2-1.5h.1l.3-.8.4.9.4.5.8.7.1 2c.3.3.5.9.7 1.6l.4.3v1.7l.4 2.4.7 1.9.4 2.6.1 1.7.7 1.5-.2.7.6 1v2.2l-.1 1c.5 1.8 1 2.8 1.7 2.8l1-.3h1.1l.9.2c.4 0 .7-.2 1-.5l.4-.4 1 .7 1-.1zm-9.4-2c-.2-1-.5-1.5-.8-1.8l.3-1.1-.7-.6-.2-3-.6-1.6v-1.3l-.4-1.1v-.4h-.2v-1.8l-.3-.8-.4-1-.4-.5-1-.8-.5.4-.3 1-1.2 2.8-.3.9c0 .2-.4 1-1.1 2l-.2 1.4-1 .8c-.3 2-.8 3.3-1.5 3.6l-.5 2.4-1 .6v.9l-.1 1 1.2.8h.6l1 .4h1.1l.2-.1.4.1.6.2.6-.2 2-.3 1.5-.3 2 .3c.7 0 1.1-.3 1.1-.8 0-.4-.1-.8-.4-1.4l.5-.7z"/></svg>